<?xml version="1.0" encoding="UTF-8" standalone="no"?> <!-- Created with Vectornator for iOS (http://vectornator.io/) --><!DOCTYPE svg PUBLIC "-//W3C//DTD SVG 1.1//EN" "http://www.w3.org/Graphics/SVG/1.1/DTD/svg11.dtd">
<svg height="100%" style="fill-rule:nonzero;clip-rule:evenodd;stroke-linecap:round;stroke-linejoin:round;" xmlns:xlink="http://www.w3.org/1999/xlink" xmlns="http://www.w3.org/2000/svg" xml:space="preserve" width="100%" xmlns:vectornator="http://vectornator.io" version="1.1" viewBox="0 0 1920 1080">
<metadata>
<vectornator:setting key="DimensionsVisible" value="1"/>
<vectornator:setting key="PencilOnly" value="0"/>
<vectornator:setting key="SnapToPoints" value="0"/>
<vectornator:setting key="OutlineMode" value="0"/>
<vectornator:setting key="CMYKEnabledKey" value="0"/>
<vectornator:setting key="RulersVisible" value="1"/>
<vectornator:setting key="SnapToEdges" value="0"/>
<vectornator:setting key="GuidesVisible" value="1"/>
<vectornator:setting key="DisplayWhiteBackground" value="0"/>
<vectornator:setting key="doHistoryDisabled" value="0"/>
<vectornator:setting key="SnapToGuides" value="1"/>
<vectornator:setting key="TimeLapseWatermarkDisabled" value="0"/>
<vectornator:setting key="Units" value="Pixels"/>
<vectornator:setting key="DynamicGuides" value="0"/>
<vectornator:setting key="IsolateActiveLayer" value="0"/>
<vectornator:setting key="SnapToGrid" value="0"/>
</metadata>
<defs/>
<g id="Layeror 2" vectornator:layerName="Layeror 2">
<path stroke="#322e2f" stroke-width="1" d="M753.617+874.688C753.617+872.356+753.617+872.356+753.617+870.024C749.077+878.918+751.528+872.974+748.855+888.682C770.28+888.682+794.697+899.18+815.516+905.008C808.724+908.335+794.09+913.947+794.09+902.675C781.365+908.908+767.824+904.932+758.378+895.679C750.383+903.511+759.231+904.172+751.236+912.005C765.914+916.798+781.618+923.088+796.47+925.998C789.579+922.623+791.709+925.404+791.709+916.669C788.138+916.669+788.138+916.669+784.567+916.669C794.797+901.636+801.011+917.943+813.136+912.005C813.136+914.337+813.136+914.337+813.136+916.669C815.516+916.669+815.516+916.669+817.897+916.669C817.897+919.001+817.897+919.001+817.897+921.334C826.23+921.334+826.23+921.334+834.562+921.334C828.018+934.155+848.956+936.918+858.37+939.992C858.37+942.324+858.37+942.324+858.37+944.656C864.322+944.656+864.322+944.656+870.274+944.656C867.332+953.302+866.771+949.454+870.274+956.318C861.357+956.318+864.196+954.232+860.751+960.982C874.429+960.982+870.88+957.505+875.035+965.647C872.654+967.979+872.654+967.979+870.274+970.311C881.216+975.671+879.797+971.499+879.797+979.64C864.106+979.64+836.342+966.236+825.039+977.308C828.611+978.474+828.611+978.474+832.182+979.64C822.522+984.372+815.901+984.117+805.993+988.969C814.612+994.598+811.856+991.127+815.516+998.298C799.755+998.298+740.907+980.43+732.19+988.969C735.761+988.969+735.761+988.969+739.332+988.969C729.321+998.776+710.709+983.51+698.86+979.64C701.24+977.308+701.24+977.308+703.621+974.976C708.824+977.524+712.031+979.64+717.906+979.64C690.591+970.721+655.483+930.663+627.437+930.663C629.818+931.829+629.818+931.829+632.198+932.995C631.008+935.327+631.008+935.327+629.818+937.659C622.237+930.233+613.867+924.677+603.629+921.334C623.057+934.022+655.026+949.732+665.529+970.311C659.1+967.162+655.293+967.162+648.864+970.311C648.864+948.21+477.45+827.82+477.45+779.065C491.693+788.367+548.872+851.271+548.872+860.695C551.253+860.695+551.253+860.695+553.634+860.695C553.634+863.027+553.634+863.027+553.634+865.359C560.17+865.359+556.976+864.664+563.157+867.691C563.157+853.071+483.518+760.11+470.307+727.755C431.129+631.804+430.834+536.418+439.357+436.222C447.617+339.122+527.347+247.404+594.106+182.005C601.564+174.699+626.434+150.028+634.579+154.017C652.967+136.004+735.303+85.0659+760.759+93.3785C773.192+75.1082+855.338+67.4046+870.274+74.7203C867.183+80.7756+869.668+79.3849+863.131+79.3849C938.828+82.4747+1002.35+96.0808+1072.64+119.033C1072.64+121.366+1072.64+121.366+1072.64+123.698C1079.78+123.698+1079.78+123.698+1086.92+123.698C1086.92+127.196+1086.92+127.196+1086.92+130.695C1113.57+139.396+1129+161.408+1155.96+168.011C1155.96+171.509+1155.96+171.509+1155.96+175.008C1162.97+175.008+1165.49+177.474+1165.49+184.337C1161.92+180.839+1161.92+180.839+1158.34+177.34C1177.3+214.474+1240.02+233.127+1253.57+272.963C1243.84+279.324+1280.52+359.257+1296.43+359.257C1296.43+391.443+1313.21+429.78+1320.24+464.209C1322.62+464.209+1322.62+464.209+1325+464.209C1325+450.349+1322.19+455.296+1329.76+447.883C1329.76+462.844+1333.6+478.288+1339.28+492.196C1340.47+489.864+1340.47+489.864+1341.66+487.532C1341.66+518.629+1342.3+549.732+1341.66+580.822C1341.33+597.093+1325.14+637.077+1332.14+650.791C1324.63+654.469+1328.57+650.802+1327.38+657.787C1320.3+699.383+1270.24+750.606+1270.24+788.394C1270.24+790.133+1271.83+791.504+1272.62+793.059C1237.7+810.163+1222.38+858.483+1184.53+877.021C1183.34+874.688+1183.34+874.688+1182.15+872.356C1174.9+877.683+1148.82+888.682+1148.82+895.679C1146.44+894.513+1146.44+894.513+1144.06+893.346C1131.04+906.106+1115.97+910.139+1098.83+914.337C1101.21+913.171+1101.21+913.171+1103.59+912.005C1092.6+908.415+1081.46+913.926+1070.26+916.669C1077.97+912.89+1086.35+911.119+1094.06+907.34C1085.54+903.165+1055.01+913.405+1046.45+914.337C1055.28+911.455+1051.35+913.104+1058.35+909.672C1038.39+903.153+999.948+921.212+977.408+923.666C980.979+922.5+980.979+922.5+984.55+921.334C974.303+917.988+979.842+919.598+967.885+916.669C998.035+910.762+1030.85+903.321+1055.97+891.014C1053.59+889.848+1053.59+889.848+1051.21+888.682C1163.36+833.75+1219.56+778.069+1275+669.449C1277.38+671.781+1277.38+671.781+1279.76+674.113C1306.89+620.967+1302.3+532.922+1301.19+482.867C1303.57+485.2+1303.57+485.2+1305.95+487.532C1307.14+480.535+1307.14+480.535+1308.33+473.538C1321.74+499.806+1312.81+538.151+1315.47+566.829C1317.01+515.55+1318.8+482.361+1308.33+436.222C1305.93+425.643+1299.78+384.912+1286.91+384.912C1289.96+372.933+1286.58+369.27+1279.76+359.257C1279.76+386.754+1286.93+415.309+1294.05+443.219C1292.46+438.554+1290.87+433.89+1289.29+429.225C1286.91+430.391+1286.91+430.391+1284.52+431.557C1284.52+415.824+1274.3+393.215+1265.48+380.247C1267.86+381.414+1267.86+381.414+1270.24+382.58C1275.25+358.032+1252.21+337.93+1241.67+317.276C1240.48+321.941+1240.48+321.941+1239.29+326.605C1205.75+260.896+1139.35+213.897+1063.11+189.001C1063.11+186.669+1063.11+186.669+1063.11+184.337C1037.68+184.337+1016.45+170.343+991.692+170.343C1026.53+187.409+1093.93+195.735+1113.11+233.315C1109.54+232.148+1109.54+232.148+1105.97+230.982C1104.78+234.481+1104.78+234.481+1103.59+237.979C1088.44+237.979+1041.61+214.578+1029.78+202.995C1007.89+213.717+972.258+195.157+948.839+191.334C936.725+215.067+894.927+196.675+867.893+198.331C829.958+200.653+791.128+212.552+755.998+226.318C618.207+280.312+557.265+392.069+548.872+531.845C549.533+523.427+550.585+457.212+565.537+457.212C565.537+489.194+549.785+520.535+560.776+552.835C564.879+484.499+578.236+436.217+598.868+375.583C596.487+376.749+596.487+376.749+594.106+377.915C594.106+372.864+607.154+352.26+613.152+352.26C613.152+336.604+621.927+339.733+627.437+328.938C634.253+331.163+704.03+260.515+717.906+249.64C777.684+202.791+877.587+203.599+948.839+212.324C903.749+214.091+860.742+214.659+817.897+228.65C819.088+226.318+819.088+226.318+820.278+223.985C803.969+223.985+768.485+238.859+751.236+247.308C753.617+247.308+753.617+247.308+755.998+247.308C738.775+250.683+728.749+272.444+715.525+265.966C706.954+277.161+708.383+271.408+708.383+282.292C633.484+270.063+576.294+448.41+572.68+501.525C572.323+506.773+561.034+575.118+582.203+585.487C584.938+566.728+582.809+574.376+586.964+562.164C590.138+580.82+594.198+606.567+608.391+620.471C609.581+618.139+609.581+618.139+610.772+615.807C610.772+652.549+668.503+718.62+703.621+730.088C703.621+723.169+700+723.649+694.098+720.759C698.608+711.922+694.704+716.094+710.763+716.094C710.763+718.426+710.763+718.426+710.763+720.759C713.144+720.759+713.144+720.759+715.525+720.759C715.525+724.257+715.525+724.257+715.525+727.755C739.914+727.755+764.08+764.582+772.663+781.398C769.489+782.952+766.314+784.507+763.14+786.062C771.913+794.656+778.786+794.724+763.14+802.388C777.429+807.054+776.837+820.077+794.09+825.711C794.09+833.874+794.09+833.874+794.09+842.037C784.567+843.203+784.567+843.203+775.044+844.369C776.234+852.532+776.234+852.532+777.424+860.695C767.717+860.695+760.759+859.044+760.759+870.024C769.264+870.024+771.956+871.408+767.901+879.353C760.213+875.587+764.861+877.442+753.617+874.688Z" fill="#322e2f" stroke-linecap="round" opacity="1" stroke-linejoin="round"/>
<path d="M753.617+874.688C753.617+872.356+753.617+872.356+753.617+870.024C749.077+878.918+751.528+872.974+748.855+888.682C770.28+888.682+794.697+899.18+815.516+905.008C808.724+908.335+794.09+913.947+794.09+902.675C781.365+908.908+767.824+904.932+758.378+895.679C750.383+903.511+759.231+904.172+751.236+912.005C765.914+916.798+781.618+923.088+796.47+925.998C789.579+922.623+791.709+925.404+791.709+916.669C788.138+916.669+788.138+916.669+784.567+916.669C794.797+901.636+801.011+917.943+813.136+912.005C813.136+914.337+813.136+914.337+813.136+916.669C815.516+916.669+815.516+916.669+817.897+916.669C817.897+919.001+817.897+919.001+817.897+921.334C826.23+921.334+826.23+921.334+834.562+921.334C828.018+934.155+848.956+936.918+858.37+939.992C858.37+942.324+858.37+942.324+858.37+944.656C864.322+944.656+864.322+944.656+870.274+944.656C867.332+953.302+866.771+949.454+870.274+956.318C861.357+956.318+864.196+954.232+860.751+960.982C874.429+960.982+870.88+957.505+875.035+965.647C872.654+967.979+872.654+967.979+870.274+970.311C881.216+975.671+879.797+971.499+879.797+979.64C864.106+979.64+836.342+966.236+825.039+977.308C828.611+978.474+828.611+978.474+832.182+979.64C822.522+984.372+815.901+984.117+805.993+988.969C814.612+994.598+811.856+991.127+815.516+998.298C799.755+998.298+740.907+980.43+732.19+988.969C735.761+988.969+735.761+988.969+739.332+988.969C729.321+998.776+710.709+983.51+698.86+979.64C701.24+977.308+701.24+977.308+703.621+974.976C708.824+977.524+712.031+979.64+717.906+979.64C690.591+970.721+655.483+930.663+627.437+930.663C629.818+931.829+629.818+931.829+632.198+932.995C631.008+935.327+631.008+935.327+629.818+937.659C622.237+930.233+613.867+924.677+603.629+921.334C623.057+934.022+655.026+949.732+665.529+970.311C659.1+967.162+655.293+967.162+648.864+970.311C648.864+948.21+477.45+827.82+477.45+779.065C491.693+788.367+548.872+851.271+548.872+860.695C551.253+860.695+551.253+860.695+553.634+860.695C553.634+863.027+553.634+863.027+553.634+865.359C560.17+865.359+556.976+864.664+563.157+867.691C563.157+853.071+483.518+760.11+470.307+727.755C431.129+631.804+430.834+536.418+439.357+436.222C447.617+339.122+527.347+247.404+594.106+182.005C601.564+174.699+626.434+150.028+634.579+154.017C652.967+136.004+735.303+85.0659+760.759+93.3785C773.192+75.1082+855.338+67.4046+870.274+74.7203C867.183+80.7756+869.668+79.3849+863.131+79.3849C938.828+82.4747+1002.35+96.0808+1072.64+119.033C1072.64+121.366+1072.64+121.366+1072.64+123.698C1079.78+123.698+1079.78+123.698+1086.92+123.698C1086.92+127.196+1086.92+127.196+1086.92+130.695C1113.57+139.396+1129+161.408+1155.96+168.011C1155.96+171.509+1155.96+171.509+1155.96+175.008C1162.97+175.008+1165.49+177.474+1165.49+184.337C1161.92+180.839+1161.92+180.839+1158.34+177.34C1177.3+214.474+1240.02+233.127+1253.57+272.963C1243.84+279.324+1280.52+359.257+1296.43+359.257C1296.43+391.443+1313.21+429.78+1320.24+464.209C1322.62+464.209+1322.62+464.209+1325+464.209C1325+450.349+1322.19+455.296+1329.76+447.883C1329.76+462.844+1333.6+478.288+1339.28+492.196C1340.47+489.864+1340.47+489.864+1341.66+487.532C1341.66+518.629+1342.3+549.732+1341.66+580.822C1341.33+597.093+1325.14+637.077+1332.14+650.791C1324.63+654.469+1328.57+650.802+1327.38+657.787C1320.3+699.383+1270.24+750.606+1270.24+788.394C1270.24+790.133+1271.83+791.504+1272.62+793.059C1237.7+810.163+1222.38+858.483+1184.53+877.021C1183.34+874.688+1183.34+874.688+1182.15+872.356C1174.9+877.683+1148.82+888.682+1148.82+895.679C1146.44+894.513+1146.44+894.513+1144.06+893.346C1131.04+906.106+1115.97+910.139+1098.83+914.337C1101.21+913.171+1101.21+913.171+1103.59+912.005C1092.6+908.415+1081.46+913.926+1070.26+916.669C1077.97+912.89+1086.35+911.119+1094.06+907.34C1085.54+903.165+1055.01+913.405+1046.45+914.337C1055.28+911.455+1051.35+913.104+1058.35+909.672C1038.39+903.153+999.948+921.212+977.408+923.666C980.979+922.5+980.979+922.5+984.55+921.334C974.303+917.988+979.842+919.598+967.885+916.669C998.035+910.762+1030.85+903.321+1055.97+891.014C1053.59+889.848+1053.59+889.848+1051.21+888.682C1163.36+833.75+1219.56+778.069+1275+669.449C1277.38+671.781+1277.38+671.781+1279.76+674.113C1306.89+620.967+1302.3+532.922+1301.19+482.867C1303.57+485.2+1303.57+485.2+1305.95+487.532C1307.14+480.535+1307.14+480.535+1308.33+473.538C1321.74+499.806+1312.81+538.151+1315.47+566.829C1317.01+515.55+1318.8+482.361+1308.33+436.222C1305.93+425.643+1299.78+384.912+1286.91+384.912C1289.96+372.933+1286.58+369.27+1279.76+359.257C1279.76+386.754+1286.93+415.309+1294.05+443.219C1292.46+438.554+1290.87+433.89+1289.29+429.225C1286.91+430.391+1286.91+430.391+1284.52+431.557C1284.52+415.824+1274.3+393.215+1265.48+380.247C1267.86+381.414+1267.86+381.414+1270.24+382.58C1275.25+358.032+1252.21+337.93+1241.67+317.276C1240.48+321.941+1240.48+321.941+1239.29+326.605C1205.75+260.896+1139.35+213.897+1063.11+189.001C1063.11+186.669+1063.11+186.669+1063.11+184.337C1037.68+184.337+1016.45+170.343+991.692+170.343C1026.53+187.409+1093.93+195.735+1113.11+233.315C1109.54+232.148+1109.54+232.148+1105.97+230.982C1104.78+234.481+1104.78+234.481+1103.59+237.979C1088.44+237.979+1041.61+214.578+1029.78+202.995C1007.89+213.717+972.258+195.157+948.839+191.334C936.725+215.067+894.927+196.675+867.893+198.331C829.958+200.653+791.128+212.552+755.998+226.318C618.207+280.312+557.265+392.069+548.872+531.845C549.533+523.427+550.585+457.212+565.537+457.212C565.537+489.194+549.785+520.535+560.776+552.835C564.879+484.499+578.236+436.217+598.868+375.583C596.487+376.749+596.487+376.749+594.106+377.915C594.106+372.864+607.154+352.26+613.152+352.26C613.152+336.604+621.927+339.733+627.437+328.938C634.253+331.163+704.03+260.515+717.906+249.64C777.684+202.791+877.587+203.599+948.839+212.324C903.749+214.091+860.742+214.659+817.897+228.65C819.088+226.318+819.088+226.318+820.278+223.985C803.969+223.985+768.485+238.859+751.236+247.308C753.617+247.308+753.617+247.308+755.998+247.308C738.775+250.683+728.749+272.444+715.525+265.966C706.954+277.161+708.383+271.408+708.383+282.292C633.484+270.063+576.294+448.41+572.68+501.525C572.323+506.773+561.034+575.118+582.203+585.487C584.938+566.728+582.809+574.376+586.964+562.164C590.138+580.82+594.198+606.567+608.391+620.471C609.581+618.139+609.581+618.139+610.772+615.807C610.772+652.549+668.503+718.62+703.621+730.088C703.621+723.169+700+723.649+694.098+720.759C698.608+711.922+694.704+716.094+710.763+716.094C710.763+718.426+710.763+718.426+710.763+720.759C713.144+720.759+713.144+720.759+715.525+720.759C715.525+724.257+715.525+724.257+715.525+727.755C739.914+727.755+764.08+764.582+772.663+781.398C769.489+782.952+766.314+784.507+763.14+786.062C771.913+794.656+778.786+794.724+763.14+802.388C777.429+807.054+776.837+820.077+794.09+825.711C794.09+833.874+794.09+833.874+794.09+842.037C784.567+843.203+784.567+843.203+775.044+844.369C776.234+852.532+776.234+852.532+777.424+860.695C767.717+860.695+760.759+859.044+760.759+870.024C769.264+870.024+771.956+871.408+767.901+879.353C760.213+875.587+764.861+877.442+753.617+874.688Z" opacity="1" fill="#322e2f"/>
</g>
</svg>
