<?xml version="1.0" standalone="no"?>
<!DOCTYPE svg PUBLIC "-//W3C//DTD SVG 20010904//EN"
 "http://www.w3.org/TR/2001/REC-SVG-20010904/DTD/svg10.dtd">
<svg version="1.0" xmlns="http://www.w3.org/2000/svg"
 width="1279.000000pt" height="1280.000000pt" viewBox="0 0 1279.000000 1280.000000"
 preserveAspectRatio="xMidYMid meet">
<metadata>
Created by potrace 1.15, written by Peter Selinger 2001-2017
</metadata>
<g transform="translate(0.000000,1280.000000) scale(0.100000,-0.100000)"
fill="#000000" stroke="none">
<path d="M6110 12719 c-1807 -97 -3522 -970 -4633 -2357 -718 -897 -1191
-1988 -1351 -3122 -47 -326 -59 -511 -59 -870 -1 -560 53 -1003 188 -1540 326
-1303 1062 -2485 2070 -3330 402 -336 789 -587 1280 -830 747 -369 1483 -574
2340 -652 184 -17 778 -17 960 0 582 54 1051 152 1565 327 2059 702 3579 2350
4124 4472 133 519 191 985 191 1548 0 408 -22 668 -86 1050 -138 819 -463
1661 -920 2382 -400 632 -944 1216 -1549 1665 -486 360 -1054 665 -1635 878
-795 290 -1666 423 -2485 379z"/>
</g>
</svg>
